<svg width="251" height="31" viewBox="0 0 251 31" fill="none" xmlns="http://www.w3.org/2000/svg">
<path d="M14.1761 0.90909H20.2557V21.1932C20.2557 23.0682 19.8343 24.697 18.9915 26.0795C18.1581 27.4621 16.9981 28.5275 15.5114 29.2756C14.0246 30.0237 12.2964 30.3977 10.3267 30.3977C8.57481 30.3977 6.9839 30.09 5.55398 29.4744C4.13352 28.8494 3.00663 27.9025 2.1733 26.6335C1.33996 25.3551 0.92803 23.75 0.9375 21.8182H7.05966C7.0786 22.5852 7.23485 23.2434 7.52841 23.7926C7.83144 24.3324 8.24337 24.7491 8.7642 25.0426C9.29451 25.3267 9.91951 25.4688 10.6392 25.4688C11.3968 25.4688 12.036 25.3078 12.5568 24.9858C13.0871 24.6544 13.4896 24.1714 13.7642 23.5369C14.0388 22.9025 14.1761 22.1212 14.1761 21.1932V0.90909ZM25.3409 30V0.90909H36.8182C39.0152 0.90909 40.8902 1.30208 42.4432 2.08807C44.0057 2.86458 45.1941 3.9678 46.0085 5.39773C46.8324 6.81818 47.2443 8.48958 47.2443 10.4119C47.2443 12.3437 46.8277 14.0057 45.9943 15.3977C45.161 16.7803 43.9536 17.8409 42.3722 18.5795C40.8002 19.3182 38.8968 19.6875 36.6619 19.6875H28.9773V14.7443H35.6676C36.8419 14.7443 37.8172 14.5833 38.5938 14.2614C39.3703 13.9394 39.9479 13.4564 40.3267 12.8125C40.715 12.1686 40.9091 11.3684 40.9091 10.4119C40.9091 9.44602 40.715 8.63163 40.3267 7.96875C39.9479 7.30587 39.3655 6.80398 38.5795 6.46307C37.803 6.11269 36.8229 5.9375 35.6392 5.9375H31.4915V30H25.3409ZM41.0511 16.7614L48.2812 30H41.4915L34.4176 16.7614H41.0511ZM78.3239 15.4545C78.3239 18.6269 77.7225 21.3258 76.5199 23.5511C75.3267 25.7765 73.6979 27.4763 71.6335 28.6506C69.5786 29.8153 67.268 30.3977 64.7017 30.3977C62.1165 30.3977 59.7964 29.8106 57.7415 28.6364C55.6866 27.4621 54.0625 25.7623 52.8693 23.5369C51.6761 21.3116 51.0795 18.6174 51.0795 15.4545C51.0795 12.2822 51.6761 9.58333 52.8693 7.35795C54.0625 5.13258 55.6866 3.4375 57.7415 2.27273C59.7964 1.09848 62.1165 0.511363 64.7017 0.511363C67.268 0.511363 69.5786 1.09848 71.6335 2.27273C73.6979 3.4375 75.3267 5.13258 76.5199 7.35795C77.7225 9.58333 78.3239 12.2822 78.3239 15.4545ZM72.0881 15.4545C72.0881 13.3996 71.7803 11.6667 71.1648 10.2557C70.5587 8.8447 69.7017 7.77462 68.5938 7.04545C67.4858 6.31629 66.1884 5.9517 64.7017 5.9517C63.215 5.9517 61.9176 6.31629 60.8097 7.04545C59.7017 7.77462 58.84 8.8447 58.2244 10.2557C57.6184 11.6667 57.3153 13.3996 57.3153 15.4545C57.3153 17.5095 57.6184 19.2424 58.2244 20.6534C58.84 22.0644 59.7017 23.1345 60.8097 23.8636C61.9176 24.5928 63.215 24.9574 64.7017 24.9574C66.1884 24.9574 67.4858 24.5928 68.5938 23.8636C69.7017 23.1345 70.5587 22.0644 71.1648 20.6534C71.7803 19.2424 72.0881 17.5095 72.0881 15.4545ZM93.1925 30H82.88V0.90909H93.2777C96.2038 0.90909 98.7228 1.49148 100.835 2.65625C102.946 3.81155 104.57 5.47348 105.707 7.64205C106.853 9.81061 107.425 12.4053 107.425 15.4261C107.425 18.4564 106.853 21.0606 105.707 23.2386C104.57 25.4167 102.937 27.0881 100.806 28.2528C98.6849 29.4176 96.147 30 93.1925 30ZM89.0305 24.7301H92.9368C94.755 24.7301 96.2843 24.4081 97.5249 23.7642C98.7749 23.1108 99.7124 22.1023 100.337 20.7386C100.972 19.3655 101.289 17.5947 101.289 15.4261C101.289 13.2765 100.972 11.5199 100.337 10.1562C99.7124 8.79261 98.7796 7.78883 97.5391 7.14489C96.2985 6.50095 94.7692 6.17898 92.951 6.17898H89.0305V24.7301ZM111.982 30V0.90909H123.459C125.656 0.90909 127.531 1.30208 129.084 2.08807C130.646 2.86458 131.835 3.9678 132.649 5.39773C133.473 6.81818 133.885 8.48958 133.885 10.4119C133.885 12.3437 133.468 14.0057 132.635 15.3977C131.802 16.7803 130.594 17.8409 129.013 18.5795C127.441 19.3182 125.537 19.6875 123.303 19.6875H115.618V14.7443H122.308C123.482 14.7443 124.458 14.5833 125.234 14.2614C126.011 13.9394 126.589 13.4564 126.967 12.8125C127.356 12.1686 127.55 11.3684 127.55 10.4119C127.55 9.44602 127.356 8.63163 126.967 7.96875C126.589 7.30587 126.006 6.80398 125.22 6.46307C124.444 6.11269 123.464 5.9375 122.28 5.9375H118.132V30H111.982ZM127.692 16.7614L134.922 30H128.132L121.058 16.7614H127.692ZM141.683 0.90909V30H139.908V0.90909H141.683ZM170.487 10C170.269 9.01515 169.899 8.06345 169.379 7.14489C168.858 6.21686 168.19 5.38352 167.376 4.64489C166.571 3.89678 165.624 3.30492 164.535 2.86932C163.455 2.43371 162.243 2.21591 160.898 2.21591C158.844 2.21591 157.021 2.75568 155.43 3.83523C153.848 4.9053 152.608 6.43466 151.708 8.4233C150.818 10.4025 150.373 12.7462 150.373 15.4545C150.373 18.1345 150.818 20.4687 151.708 22.4574C152.598 24.446 153.844 25.9848 155.444 27.0739C157.054 28.1534 158.924 28.6932 161.055 28.6932C162.958 28.6932 164.644 28.2528 166.112 27.3722C167.589 26.4915 168.739 25.232 169.563 23.5938C170.387 21.9555 170.79 19.9953 170.771 17.7131L171.396 18.0114H161.509V16.3636H172.504V18.0114C172.504 20.5777 172.011 22.7888 171.026 24.6449C170.051 26.4915 168.697 27.9119 166.964 28.9062C165.24 29.9006 163.271 30.3977 161.055 30.3977C158.555 30.3977 156.372 29.7775 154.506 28.5369C152.641 27.2964 151.192 25.5587 150.16 23.3239C149.137 21.0795 148.626 18.4564 148.626 15.4545C148.626 13.2008 148.919 11.1553 149.506 9.31818C150.094 7.48106 150.932 5.90909 152.021 4.60227C153.11 3.28598 154.407 2.27746 155.913 1.5767C157.418 0.866476 159.08 0.511363 160.898 0.511363C162.546 0.511363 164.028 0.785984 165.344 1.33523C166.661 1.875 167.797 2.60417 168.754 3.52273C169.719 4.43182 170.501 5.44981 171.097 6.5767C171.694 7.69413 172.096 8.83523 172.305 10H170.487ZM199.414 0.90909H201.19V20.1705C201.19 22.1496 200.73 23.9157 199.812 25.4688C198.893 27.0123 197.624 28.2339 196.005 29.1335C194.395 30.0237 192.544 30.4688 190.451 30.4688C188.368 30.4688 186.516 30.0237 184.897 29.1335C183.278 28.2339 182.004 27.0076 181.076 25.4545C180.157 23.9015 179.703 22.1402 179.712 20.1705V0.90909H181.488V20.071C181.488 21.7472 181.867 23.2386 182.624 24.5455C183.391 25.8523 184.447 26.8845 185.792 27.642C187.137 28.3902 188.69 28.7642 190.451 28.7642C192.212 28.7642 193.765 28.3902 195.11 27.642C196.455 26.8845 197.506 25.8523 198.263 24.5455C199.031 23.2386 199.414 21.7472 199.414 20.071V0.90909ZM209.595 30V0.90909H225.788V2.55682H211.371V14.6165H224.922V16.2642H211.371V28.3523H226.129V30H209.595ZM248.832 8.18182C248.68 6.37311 247.942 4.91004 246.616 3.79261C245.299 2.67519 243.595 2.11648 241.502 2.11648C240.091 2.11648 238.836 2.37689 237.738 2.89773C236.639 3.41856 235.778 4.12879 235.153 5.02841C234.528 5.92803 234.215 6.96023 234.215 8.125C234.215 8.87311 234.357 9.55019 234.641 10.1562C234.935 10.7528 235.347 11.2879 235.877 11.7614C236.407 12.2254 237.037 12.6326 237.766 12.983C238.496 13.3333 239.3 13.6411 240.181 13.9062L243.363 14.8438C244.452 15.1752 245.456 15.5587 246.374 15.9943C247.302 16.4299 248.107 16.9508 248.789 17.5568C249.48 18.1534 250.015 18.8542 250.394 19.6591C250.782 20.464 250.977 21.392 250.977 22.4432C250.977 23.9773 250.579 25.3504 249.783 26.5625C248.997 27.7746 247.875 28.7311 246.417 29.4318C244.968 30.1231 243.259 30.4688 241.289 30.4688C239.414 30.4688 237.781 30.1515 236.388 29.517C235.006 28.8826 233.912 28.0019 233.107 26.875C232.302 25.7386 231.848 24.4318 231.744 22.9545H233.562C233.656 24.1572 234.04 25.1989 234.712 26.0795C235.394 26.9508 236.299 27.6231 237.425 28.0966C238.552 28.5701 239.84 28.8068 241.289 28.8068C242.852 28.8068 244.229 28.5417 245.423 28.0114C246.616 27.4716 247.549 26.7235 248.221 25.767C248.893 24.8106 249.229 23.6979 249.229 22.429C249.229 21.4062 248.988 20.5303 248.505 19.8011C248.022 19.072 247.307 18.4422 246.36 17.9119C245.423 17.3816 244.258 16.9081 242.866 16.4915L239.471 15.4688C237.198 14.7775 235.46 13.8352 234.258 12.642C233.065 11.4489 232.468 9.96212 232.468 8.18182C232.468 6.68561 232.866 5.35985 233.661 4.20455C234.457 3.03977 235.536 2.12595 236.9 1.46307C238.273 0.800189 239.821 0.46875 241.545 0.46875C243.278 0.46875 244.807 0.804924 246.133 1.47727C247.459 2.14015 248.51 3.05398 249.286 4.21875C250.063 5.37405 250.494 6.69508 250.579 8.18182H248.832Z" fill="#F1F1F1"/>
</svg>
