<svg width="418" height="124" viewBox="0 0 418 124" fill="none" xmlns="http://www.w3.org/2000/svg">
<g clip-path="url(#clip0_7_127)">
<rect width="418" height="124" fill="#1F2622"/>
<path d="M120.176 46.9091H126.256V67.1932C126.256 69.0682 125.834 70.697 124.991 72.0795C124.158 73.4621 122.998 74.5275 121.511 75.2756C120.025 76.0237 118.296 76.3977 116.327 76.3977C114.575 76.3977 112.984 76.09 111.554 75.4744C110.134 74.8494 109.007 73.9025 108.173 72.6335C107.34 71.3551 106.928 69.75 106.938 67.8182H113.06C113.079 68.5852 113.235 69.2434 113.528 69.7926C113.831 70.3324 114.243 70.7491 114.764 71.0426C115.295 71.3267 115.92 71.4688 116.639 71.4688C117.397 71.4688 118.036 71.3078 118.557 70.9858C119.087 70.6544 119.49 70.1714 119.764 69.5369C120.039 68.9025 120.176 68.1212 120.176 67.1932V46.9091ZM131.341 76V46.9091H142.818C145.015 46.9091 146.89 47.3021 148.443 48.0881C150.006 48.8646 151.194 49.9678 152.009 51.3977C152.832 52.8182 153.244 54.4896 153.244 56.4119C153.244 58.3437 152.828 60.0057 151.994 61.3977C151.161 62.7803 149.954 63.8409 148.372 64.5795C146.8 65.3182 144.897 65.6875 142.662 65.6875H134.977V60.7443H141.668C142.842 60.7443 143.817 60.5833 144.594 60.2614C145.37 59.9394 145.948 59.4564 146.327 58.8125C146.715 58.1686 146.909 57.3684 146.909 56.4119C146.909 55.446 146.715 54.6316 146.327 53.9688C145.948 53.3059 145.366 52.804 144.58 52.4631C143.803 52.1127 142.823 51.9375 141.639 51.9375H137.491V76H131.341ZM147.051 62.7614L154.281 76H147.491L140.418 62.7614H147.051ZM184.324 61.4545C184.324 64.6269 183.723 67.3258 182.52 69.5511C181.327 71.7765 179.698 73.4763 177.634 74.6506C175.579 75.8153 173.268 76.3977 170.702 76.3977C168.116 76.3977 165.796 75.8106 163.741 74.6364C161.687 73.4621 160.063 71.7623 158.869 69.5369C157.676 67.3116 157.08 64.6174 157.08 61.4545C157.08 58.2822 157.676 55.5833 158.869 53.358C160.063 51.1326 161.687 49.4375 163.741 48.2727C165.796 47.0985 168.116 46.5114 170.702 46.5114C173.268 46.5114 175.579 47.0985 177.634 48.2727C179.698 49.4375 181.327 51.1326 182.52 53.358C183.723 55.5833 184.324 58.2822 184.324 61.4545ZM178.088 61.4545C178.088 59.3996 177.78 57.6667 177.165 56.2557C176.559 54.8447 175.702 53.7746 174.594 53.0455C173.486 52.3163 172.188 51.9517 170.702 51.9517C169.215 51.9517 167.918 52.3163 166.81 53.0455C165.702 53.7746 164.84 54.8447 164.224 56.2557C163.618 57.6667 163.315 59.3996 163.315 61.4545C163.315 63.5095 163.618 65.2424 164.224 66.6534C164.84 68.0644 165.702 69.1345 166.81 69.8636C167.918 70.5928 169.215 70.9574 170.702 70.9574C172.188 70.9574 173.486 70.5928 174.594 69.8636C175.702 69.1345 176.559 68.0644 177.165 66.6534C177.78 65.2424 178.088 63.5095 178.088 61.4545ZM199.192 76H188.88V46.9091H199.278C202.204 46.9091 204.723 47.4915 206.835 48.6562C208.946 49.8116 210.57 51.4735 211.707 53.642C212.853 55.8106 213.425 58.4053 213.425 61.4261C213.425 64.4564 212.853 67.0606 211.707 69.2386C210.57 71.4167 208.937 73.0881 206.806 74.2528C204.685 75.4176 202.147 76 199.192 76ZM195.031 70.7301H198.937C200.755 70.7301 202.284 70.4081 203.525 69.7642C204.775 69.1108 205.712 68.1023 206.337 66.7386C206.972 65.3655 207.289 63.5947 207.289 61.4261C207.289 59.2765 206.972 57.5199 206.337 56.1562C205.712 54.7926 204.78 53.7888 203.539 53.1449C202.299 52.5009 200.769 52.179 198.951 52.179H195.031V70.7301ZM217.982 76V46.9091H229.459C231.656 46.9091 233.531 47.3021 235.084 48.0881C236.646 48.8646 237.835 49.9678 238.649 51.3977C239.473 52.8182 239.885 54.4896 239.885 56.4119C239.885 58.3437 239.468 60.0057 238.635 61.3977C237.802 62.7803 236.594 63.8409 235.013 64.5795C233.441 65.3182 231.537 65.6875 229.303 65.6875H221.618V60.7443H228.308C229.482 60.7443 230.458 60.5833 231.234 60.2614C232.011 59.9394 232.589 59.4564 232.967 58.8125C233.356 58.1686 233.55 57.3684 233.55 56.4119C233.55 55.446 233.356 54.6316 232.967 53.9688C232.589 53.3059 232.006 52.804 231.22 52.4631C230.444 52.1127 229.464 51.9375 228.28 51.9375H224.132V76H217.982ZM233.692 62.7614L240.922 76H234.132L227.058 62.7614H233.692ZM247.683 46.9091V76H245.908V46.9091H247.683ZM276.487 56C276.269 55.0152 275.899 54.0634 275.379 53.1449C274.858 52.2169 274.19 51.3835 273.376 50.6449C272.571 49.8968 271.624 49.3049 270.535 48.8693C269.455 48.4337 268.243 48.2159 266.898 48.2159C264.844 48.2159 263.021 48.7557 261.43 49.8352C259.848 50.9053 258.608 52.4347 257.708 54.4233C256.818 56.4025 256.373 58.7462 256.373 61.4545C256.373 64.1345 256.818 66.4687 257.708 68.4574C258.598 70.446 259.844 71.9848 261.444 73.0739C263.054 74.1534 264.924 74.6932 267.055 74.6932C268.958 74.6932 270.644 74.2528 272.112 73.3722C273.589 72.4915 274.739 71.232 275.563 69.5938C276.387 67.9555 276.79 65.9953 276.771 63.7131L277.396 64.0114H267.509V62.3636H278.504V64.0114C278.504 66.5777 278.011 68.7888 277.026 70.6449C276.051 72.4915 274.697 73.9119 272.964 74.9062C271.24 75.9006 269.271 76.3977 267.055 76.3977C264.555 76.3977 262.372 75.7775 260.506 74.5369C258.641 73.2964 257.192 71.5587 256.16 69.3239C255.137 67.0795 254.626 64.4564 254.626 61.4545C254.626 59.2008 254.919 57.1553 255.506 55.3182C256.094 53.4811 256.932 51.9091 258.021 50.6023C259.11 49.286 260.407 48.2775 261.913 47.5767C263.418 46.8665 265.08 46.5114 266.898 46.5114C268.546 46.5114 270.028 46.786 271.344 47.3352C272.661 47.875 273.797 48.6042 274.754 49.5227C275.719 50.4318 276.501 51.4498 277.097 52.5767C277.694 53.6941 278.096 54.8352 278.305 56H276.487ZM305.414 46.9091H307.19V66.1705C307.19 68.1496 306.73 69.9157 305.812 71.4688C304.893 73.0123 303.624 74.2339 302.005 75.1335C300.395 76.0237 298.544 76.4688 296.451 76.4688C294.368 76.4688 292.516 76.0237 290.897 75.1335C289.278 74.2339 288.004 73.0076 287.076 71.4545C286.157 69.9015 285.703 68.1402 285.712 66.1705V46.9091H287.488V66.071C287.488 67.7472 287.867 69.2386 288.624 70.5455C289.391 71.8523 290.447 72.8845 291.792 73.642C293.137 74.3902 294.69 74.7642 296.451 74.7642C298.212 74.7642 299.765 74.3902 301.11 73.642C302.455 72.8845 303.506 71.8523 304.263 70.5455C305.031 69.2386 305.414 67.7472 305.414 66.071V46.9091ZM315.595 76V46.9091H331.788V48.5568H317.371V60.6165H330.922V62.2642H317.371V74.3523H332.129V76H315.595ZM354.832 54.1818C354.68 52.3731 353.942 50.91 352.616 49.7926C351.299 48.6752 349.595 48.1165 347.502 48.1165C346.091 48.1165 344.836 48.3769 343.738 48.8977C342.639 49.4186 341.778 50.1288 341.153 51.0284C340.528 51.928 340.215 52.9602 340.215 54.125C340.215 54.8731 340.357 55.5502 340.641 56.1562C340.935 56.7528 341.347 57.2879 341.877 57.7614C342.407 58.2254 343.037 58.6326 343.766 58.983C344.496 59.3333 345.3 59.6411 346.181 59.9062L349.363 60.8438C350.452 61.1752 351.456 61.5587 352.374 61.9943C353.302 62.4299 354.107 62.9508 354.789 63.5568C355.48 64.1534 356.015 64.8542 356.394 65.6591C356.782 66.464 356.977 67.392 356.977 68.4432C356.977 69.9773 356.579 71.3504 355.783 72.5625C354.997 73.7746 353.875 74.7311 352.417 75.4318C350.968 76.1231 349.259 76.4688 347.289 76.4688C345.414 76.4688 343.781 76.1515 342.388 75.517C341.006 74.8826 339.912 74.0019 339.107 72.875C338.302 71.7386 337.848 70.4318 337.744 68.9545H339.562C339.656 70.1572 340.04 71.1989 340.712 72.0795C341.394 72.9508 342.299 73.6231 343.425 74.0966C344.552 74.5701 345.84 74.8068 347.289 74.8068C348.852 74.8068 350.229 74.5417 351.423 74.0114C352.616 73.4716 353.549 72.7235 354.221 71.767C354.893 70.8106 355.229 69.6979 355.229 68.429C355.229 67.4062 354.988 66.5303 354.505 65.8011C354.022 65.072 353.307 64.4422 352.36 63.9119C351.423 63.3816 350.258 62.9081 348.866 62.4915L345.471 61.4688C343.198 60.7775 341.46 59.8352 340.258 58.642C339.065 57.4489 338.468 55.9621 338.468 54.1818C338.468 52.6856 338.866 51.3598 339.661 50.2045C340.457 49.0398 341.536 48.1259 342.9 47.4631C344.273 46.8002 345.821 46.4688 347.545 46.4688C349.278 46.4688 350.807 46.8049 352.133 47.4773C353.459 48.1402 354.51 49.054 355.286 50.2188C356.063 51.3741 356.494 52.6951 356.579 54.1818H354.832Z" fill="white"/>
<line x1="73.5" y1="11" x2="73.5" y2="28" stroke="#F1F1F1" stroke-width="3"/>
<line x1="72" y1="26.5" x2="91" y2="26.5" stroke="#F1F1F1" stroke-width="3"/>
<line y1="-1.5" x2="25.6769" y2="-1.5" transform="matrix(0.703804 0.710394 -0.774184 0.632961 72.4717 10)" stroke="#F1F1F1" stroke-width="3"/>
<line x1="91.5" y1="26" x2="91.5" y2="112" stroke="white" stroke-width="3"/>
<line x1="93" y1="111.5" x2="22" y2="111.5" stroke="#F1F1F1" stroke-width="3"/>
<line x1="23.5" y1="110" x2="23.5" y2="11" stroke="#F1F1F1" stroke-width="3"/>
<line x1="22" y1="9.5" x2="74.2" y2="9.5" stroke="#F1F1F1" stroke-width="3"/>
<line x1="91.2947" y1="62.4161" x2="67.2531" y2="38.3745" stroke="white" stroke-width="3"/>
<line x1="23.2947" y1="62.3363" x2="47.3363" y2="38.2947" stroke="white" stroke-width="3"/>
<line x1="23.416" y1="60.2948" x2="47.4576" y2="84.3364" stroke="white" stroke-width="3"/>
<line x1="91.4576" y1="60.4161" x2="67.416" y2="84.4578" stroke="white" stroke-width="3"/>
<line x1="64.4538" y1="33.3696" x2="49.4538" y2="92.3696" stroke="white" stroke-width="3"/>
</g>
<defs>
<clipPath id="clip0_7_127">
<rect width="418" height="124" fill="white"/>
</clipPath>
</defs>
</svg>
